<?xml version="1.0" encoding="utf-8"?>
<!-- Generator: Adobe Illustrator 21.1.0, SVG Export Plug-In . SVG Version: 6.00 Build 0)  -->
<svg version="1.1" id="Capa_1" xmlns="http://www.w3.org/2000/svg" xmlns:xlink="http://www.w3.org/1999/xlink" x="0px" y="0px"
	 viewBox="0 0 1452 520" style="enable-background:new 0 0 1452 520;" xml:space="preserve">
<style type="text/css">
	.st0{fill:#ECEFF1;}
</style>
<rect x="160.6" y="192.9" class="st0" width="102.8" height="136.4"/>
<rect x="160.6" y="192.9" class="st0" width="102.8" height="136.4"/>
<rect x="160.6" y="16.2" class="st0" width="102.8" height="136.4"/>
<rect x="160.6" y="368.6" class="st0" width="102.8" height="136.4"/>
<rect x="303" y="260.6" class="st0" width="102.8" height="244.4"/>
<rect x="18.2" y="16.2" class="st0" width="102.8" height="244.8"/>
<polygon class="st0" points="529.7,134.1 478.5,134.1 478.5,441.6 683.4,441.6 683.4,390.3 529.7,390.3 "/>
<rect x="1144.5" y="185.4" class="st0" width="51.2" height="51.3"/>
<polygon class="st0" points="1400.8,185.4 1400.8,287.9 1298.4,287.9 1298.4,185.4 1400.7,185.4 1400.7,134.1 1247.1,134.1 
	1247.1,441.5 1298.4,441.5 1298.4,339.2 1400.7,339.2 1400.7,441.5 1451.9,441.5 1451.9,185.4 "/>
<polygon class="st0" points="1144.5,389.9 1042,389.9 1042,185.7 1144.1,185.7 1144.1,185.4 1144.3,185.4 1144.3,134.4 
	1144.1,134.4 1144.1,133.8 990.7,133.8 990.7,185.7 990.8,185.7 990.8,389.9 991.1,389.9 991.1,441.8 1195.6,441.8 1195.6,390.3 
	1195.7,390.3 1195.7,339.1 1144.5,339.1 "/>
<g>
	<rect x="888.2" y="134" class="st0" width="51.2" height="256"/>
	<polygon class="st0" points="785.9,390 785.9,134.1 734.6,134.1 734.6,364.7 734.6,364.7 734.6,390 	"/>
	<rect x="786" y="390.3" class="st0" width="102" height="51.7"/>
</g>
</svg>
